inDegrees=yes
name=ik_data_2024_11_06_17_43
DataType=double
version=3
OpenSimVersion=4.5.1
endheader
time	pelvis_tilt	pelvis_list	pelvis_rotation	pelvis_tx	pelvis_ty	pelvis_tz	hip_flexion_r	hip_adduction_r	hip_rotation_r	knee_angle_r	knee_angle_r_beta	ankle_angle_r	subtalar_angle_r	mtp_angle_r	hip_flexion_l	hip_adduction_l	hip_rotation_l	knee_angle_l	knee_angle_l_beta	ankle_angle_l	subtalar_angle_l	mtp_angle_l	lumbar_extension	lumbar_bending	lumbar_rotation	arm_flex_r	arm_add_r	arm_rot_r	elbow_flex_r	pro_sup_r	wrist_flex_r	wrist_dev_r	arm_flex_l	arm_add_l	arm_rot_l	elbow_flex_l	pro_sup_l	wrist_flex_l	wrist_dev_l
7.41	14.23533120413599	-9.43203378297156	146.3151902381905	0	0.9399999999999999	0	-29.99123442050533	-1.238068638374457	-29.5212501546628	0.008559254025699679	0.0001493871642630387	-3.198268898049821	0	0	17.27682684301532	-0.2498724577646231	-0.3718178614197262	0.5134806393517197	0.00896192780193307	-3.198268898049821	0	0	0	0	0	0	-2.278727511041811	0	28.74549117440226	26.5892768556064	0	0	0	-2.278727511041811	0	28.74549117440226	26.5892768556064	0	0
7.531	15.39636673743836	-10.78345599155701	147.7263953269935	0	0.9399999999999999	0	-29.99202812726212	2.923509799179989	-35.31310948343961	0.007778774778567902	0.0001357652316571027	-3.216783718307056	0	0	18.97534090384451	0.6132580181107673	0.61652213925092	0.5097904000573712	0.008897520976060216	-3.216783718307056	0	0	0	0	0	0	-2.292999153808492	0	28.91311481480459	26.72681444494712	0	0	0	-2.292999153808492	0	28.91311481480459	26.72681444494712	0	0
7.665	16.28940055314603	-11.50998426119829	148.2522730949141	0	0.9399999999999999	0	-29.99247830417261	4.066973474143071	-38.43873105601453	0.00734626952950148	0.0001282165910287355	-3.222995720653243	0	0	20.09506345619677	0.8775104234031456	0.8934814741459917	0.5169650998682771	0.00902274311060274	-3.222995720653243	0	0	0	0	0	0	-2.298037575468557	0	28.96937480682751	26.77285191744608	0	0	0	-2.298037575468557	0	28.96937480682751	26.77285191744608	0	0
7.8	17.17634638102955	-11.65225924528605	147.6211340902774	0	0.9399999999999999	0	-29.99277862316587	6.188832553876258	-39.91649114536744	0.006871108715155745	0.000119923470341945	-3.230830373048183	0	0	20.91699007097608	0.2674115912444971	0.2649026558777882	0.5070533821124846	0.008849751001235777	-3.230830373048183	0	0	0	0	0	0	-2.304419890584086	0	29.04041433525242	26.83091969248309	0	0	0	-2.304419890584086	0	29.04041433525242	26.83091969248309	0	0
7.92	17.84407958243322	-11.36974599901949	145.8819626352	0	0.9399999999999999	0	-29.99291464559907	8.723354490790049	-39.96828855549059	0.006390321979202287	0.0001115321587996405	-3.255088754443129	0	0	21.28392905647236	-0.9608690413777556	-1.275524530929294	0.490243870384952	0.008556369675937734	-3.255088754443129	0	0	0	0	0	0	-2.333678468014166	0	29.28836160853018	27.01681112964337	0	0	0	-2.333678468014166	0	29.28836160853018	27.01681112964337	0	0
8.055	18.52751547039195	-11.56716034151319	145.5888872635409	0	0.9399999999999999	0	-29.99312697523039	7.746710887473981	-39.96968284885023	0.006467502724320534	0.0001128792169210965	-3.269904081073781	0	0	21.95826985750197	-1.316864287597768	-1.590097931159194	0.5043435110678811	0.008802454829202989	-3.269904081073781	0	0	0	0	0	0	-2.350647327464138	0	29.44538085663365	27.132739862273	0	0	0	-2.350647327464138	0	29.44538085663365	27.132739862273	0	0
8.191000000000001	19.00946978093601	-11.33452410082547	144.3550551824985	0	0.9399999999999999	0	-29.99321828957261	9.792292387601522	-39.97911981507042	0.006216061906023679	0.0001084907467679075	-3.275135547186343	0	0	22.17236220466745	-2.249702649256694	-2.638960617795237	0.4983892387647347	0.008698533172952777	-3.275135547186343	0	0	0	0	0	0	-2.355035957611851	0	29.49313966916835	27.17152169086084	0	0	0	-2.355035957611851	0	29.49313966916835	27.17152169086084	0	0
8.31	19.34468974168371	-11.17489300402456	143.4893824438021	0	0.9399999999999999	0	-29.99326422870106	11.3320788198852	-39.98284309434815	0.006073792136047023	0.0001060076708557599	-3.279960371588127	0	0	22.31671182455986	-2.903310520008347	-3.380470490817464	0.5039774409988081	0.008796065701204661	-3.279960371588127	0	0	0	0	0	0	-2.359088662601729	0	29.53719800163379	27.20728635198572	0	0	0	-2.359088662601729	0	29.53719800163379	27.20728635198572	0	0
8.445	19.58823770782654	-11.29951052723935	143.4641255457368	0	0.9399999999999999	0	-29.99332526235115	11.14598653129409	-39.98300775105991	0.006149776971355811	0.0001073338564134839	-3.283789342634095	0	0	22.60523003170093	-2.952484023883436	-3.43890191870973	0.552804438088104	0.009648257564274561	-3.283789342634095	0	0	0	0	0	0	-2.362376158844999	0	29.57246333030661	27.23574003009161	0	0	0	-2.362376158844999	0	29.57246333030661	27.23574003009161	0	0
8.595000000000001	19.54226617778283	-11.22122275335083	143.3705843756412	0	0.9399999999999999	0	-29.9933078060033	10.93069799152769	-39.98297752965398	0.006095161619538367	0.0001063806387021344	-3.288171829180337	0	0	22.50563485389544	-3.020378143388732	-3.502085263626808	0.5244007848326033	0.00915252029537127	-3.288171829180337	0	0	0	0	0	0	-2.366174369146322	0	29.61296591401574	27.26833676172478	0	0	0	-2.366174369146322	0	29.61296591401574	27.26833676172478	0	0
